<?xml version="1.0" encoding="UTF-8"?>
<svg version="1.1" xmlns="http://www.w3.org/2000/svg" width="213" height="85">
<path d="M0 0 C7.63538311 -0.10124722 15.27059377 -0.17140114 22.90649414 -0.21972656 C25.50519276 -0.23986774 28.10384593 -0.26718228 30.70239258 -0.30175781 C34.43321942 -0.35016388 38.1634482 -0.37294401 41.89453125 -0.390625 C43.06023148 -0.41127014 44.2259317 -0.43191528 45.42695618 -0.45318604 C46.50785019 -0.45348816 47.5887442 -0.45379028 48.70239258 -0.45410156 C50.13135612 -0.46742523 50.13135612 -0.46742523 51.58918762 -0.48101807 C54 -0 54 -0 55.80485535 1.80889893 C57.55082881 5.00985398 57.46774136 8.12942474 57.46875 11.6875 C57.48017029 12.79677856 57.48017029 12.79677856 57.49182129 13.9284668 C57.50260279 15.48840974 57.5054833 17.04842475 57.50097656 18.60839844 C57.50000296 20.99275995 57.5416637 23.37391449 57.5859375 25.7578125 C57.59114402 27.27603497 57.5938327 28.7942686 57.59375 30.3125 C57.6183429 31.37827271 57.6183429 31.37827271 57.64343262 32.46557617 C57.59077139 36.24305028 57.29971055 37.69956141 54.58789062 40.41796875 C49.71783619 43.3951341 45.43576089 43.24403491 39.85351562 43.25390625 C37.44227998 43.28695479 37.44227998 43.28695479 34 44 C31.92643295 46.39323577 31.92643295 46.39323577 31 49 C36.35617338 48.66810037 39.71047846 48.37033835 44 45 C46.81900839 45.1375126 48.45769347 45.64469572 50.8125 47.1875 C52.58260835 49.88924432 52.39415803 51.84673574 52 55 C50.9375 56.875 50.9375 56.875 49 58 C45.4375 58.3125 45.4375 58.3125 42 58 C41.34 57.34 40.68 56.68 40 56 C37.56747339 55.53837573 37.56747339 55.53837573 34.875 55.375 C33.96492188 55.30023438 33.05484375 55.22546875 32.1171875 55.1484375 C31.41851562 55.09945312 30.71984375 55.05046875 30 55 C30.48726562 55.4228125 30.97453125 55.845625 31.4765625 56.28125 C33 58 33 58 33.375 61.5 C33 65 33 65 31.875 66.9375 C29.0300175 68.54965675 27.2088071 68.52388687 24 68 C21.625 65.6875 21.625 65.6875 20 63 C20 62.01 20 61.02 20 60 C20.66 60 21.32 60 22 60 C22.33 58.68 22.66 57.36 23 56 C23.66 56 24.32 56 25 56 C25 55.34 25 54.68 25 54 C24.195625 54.2475 24.195625 54.2475 23.375 54.5 C21 55 21 55 17.9375 54.875 C14.99309893 54.66092813 14.99309893 54.66092813 13.5625 56.5 C12 58 12 58 8.3125 58.1875 C6.6728125 58.0946875 6.6728125 58.0946875 5 58 C5 57.34 5 56.68 5 56 C3.68 55.34 2.36 54.68 1 54 C1.34122187 50.92900316 1.88225975 49.1657085 3.6875 46.625 C6 45 6 45 9.25 45.25 C10.1575 45.4975 11.065 45.745 12 46 C12.33 46.99 12.66 47.98 13 49 C15.64 48.67 18.28 48.34 21 48 C21 47.01 21 46.02 21 45 C21 44.34 21 43.68 21 43 C19.13794922 43.05220703 19.13794922 43.05220703 17.23828125 43.10546875 C15.59636774 43.13361584 13.95443954 43.16091501 12.3125 43.1875 C11.08756836 43.22520508 11.08756836 43.22520508 9.83789062 43.26367188 C5.02454957 43.32213351 1.94196278 43.08670459 -2 40 C-3.75604008 38.24395992 -3.12832585 35.94067677 -3.13894653 33.60169983 C-3.1369223 32.84755295 -3.13489807 32.09340607 -3.1328125 31.31640625 C-3.13376923 30.54570297 -3.13472595 29.77499969 -3.13571167 28.98094177 C-3.13639349 27.34756387 -3.13453909 25.71418327 -3.13037109 24.08081055 C-3.12503007 21.57659828 -3.13031224 19.07256597 -3.13671875 16.56835938 C-3.13605783 14.9843746 -3.13477637 13.40038994 -3.1328125 11.81640625 C-3.13483673 11.0642836 -3.13686096 10.31216095 -3.13894653 9.5372467 C-3.11495624 4.22991249 -3.11495624 4.22991249 -2 2 C-1.34 2 -0.68 2 0 2 C0 1.34 0 0.68 0 0 Z M9 6 C12.88697878 10.60466117 12.88697878 10.60466117 17 15 C17.66 15 18.32 15 19 15 C19 14.34 19 13.68 19 13 C24.12370807 11.31632288 27.54690081 10.50567389 32.5625 12.8125 C34.72942848 13.81451586 34.72942848 13.81451586 37 14 C40.23469497 12.18317966 42.64365159 9.85073214 45 7 C45 6.67 45 6.34 45 6 C33.12 6 21.24 6 9 6 Z M47.25 11.6875 C46.5075 12.450625 45.765 13.21375 45 14 C44.113125 14.763125 43.22625 15.52625 42.3125 16.3125 C39.46846604 19.61772866 39.38205349 21.72100093 39 26 C38.36096883 27.67745682 37.69658363 29.34561387 37 31 C36.67 32.65 36.34 34.3 36 36 C42.93 36.495 42.93 36.495 50 37 C50 28.09 50 19.18 50 10 C48.71479383 9.88431074 48.71479383 9.88431074 47.25 11.6875 Z M3 11 C3 19.58 3 28.16 3 37 C7.95 36.67 12.9 36.34 18 36 C17.16537965 31.28941438 17.16537965 31.28941438 16 28 C15.34 28 14.68 28 14 28 C14.08701172 27.09507813 14.08701172 27.09507813 14.17578125 26.171875 C14.31523305 23.70158604 14.34785242 21.45193534 14 19 C11.79511741 16.53583866 11.79511741 16.53583866 9 15 C8.46375 14.443125 7.9275 13.88625 7.375 13.3125 C5.91931103 11.73627162 5.91931103 11.73627162 3 11 Z M21.5625 18.5625 C19.54229748 21.71401593 19.39826324 23.31436232 20 27 C21.80510138 29.64748202 23.74080266 31.74080266 26 34 C26.99 34 27.98 34 29 34 C29.268125 33.401875 29.53625 32.80375 29.8125 32.1875 C31 30 31 30 32.5625 28.5625 C34.45263121 26.50800956 34.6324247 24.72005723 35 22 C34.34 22 33.68 22 33 22 C32.7215625 21.0409375 32.7215625 21.0409375 32.4375 20.0625 C31.06628537 17.63772948 31.06628537 17.63772948 27.625 17 C24.02608386 16.67395172 24.02608386 16.67395172 21.5625 18.5625 Z M44 51 C44.33 51.66 44.66 52.32 45 53 C45.66 53 46.32 53 47 53 C47 52.34 47 51.68 47 51 C46.01 51 45.02 51 44 51 Z " fill="#1B67B7" transform="translate(28,11)"/>
<path d="M0 0 C0.66 0.33 1.32 0.66 2 1 C2 1.66 2 2.32 2 3 C2.99 3.33 3.98 3.66 5 4 C5 4.99 5 5.98 5 7 C4.34 7.66 3.68 8.32 3 9 C3.680625 8.34 4.36125 7.68 5.0625 7 C8.65967285 4.55086104 10.73296158 4.58970784 15 5 C15.33 5.33 15.66 5.66 16 6 C16.33 4.35 16.66 2.7 17 1 C21.3164922 0.23826608 24.74433453 -0.16063604 29 1 C29 1.66 29 2.32 29 3 C29.66 3 30.32 3 31 3 C31.33 2.01 31.66 1.02 32 0 C35.375 -0.125 35.375 -0.125 39 0 C39.66 0.66 40.32 1.32 41 2 C41.99 1.34 42.98 0.68 44 0 C44.99 0 45.98 0 47 0 C47.495 2.475 47.495 2.475 48 5 C49.3921875 4.938125 49.3921875 4.938125 50.8125 4.875 C54 5 54 5 57 7 C57.66 6.34 58.32 5.68 59 5 C62.39597063 4.78323592 64.75778445 4.91926148 68 6 C69.66955115 5.6814284 71.33570503 5.34497991 73 5 C75.53913369 4.85923779 78.08214564 4.78009295 80.625 4.75 C81.93726563 4.72421875 83.24953125 4.6984375 84.6015625 4.671875 C88 5 88 5 89.90625 6.3046875 C91.74077982 9.14820872 91.88489313 11.66190081 92 15 C90.9375 17.875 90.9375 17.875 89 20 C85.8125 20.8125 85.8125 20.8125 83 21 C82.67 22.32 82.34 23.64 82 25 C79.5625 24.625 79.5625 24.625 77 24 C75.71553081 21.43106162 75.67022856 19.23423663 75.4375 16.375 C75.35371094 15.37210938 75.26992187 14.36921875 75.18359375 13.3359375 C75.12300781 12.56507812 75.06242187 11.79421875 75 11 C74.67 13.64 74.34 16.28 74 19 C70.04 19 66.08 19 62 19 C62 19.66 62 20.32 62 21 C58.04 20.34 54.08 19.68 50 19 C50.020625 17.865625 50.04125 16.73125 50.0625 15.5625 C50.41577477 12.18424326 50.41577477 12.18424326 49 11 C48.855625 12.134375 48.71125 13.26875 48.5625 14.4375 C48 18 48 18 47 19 C46.05125 18.979375 45.1025 18.95875 44.125 18.9375 C40.83264113 18.72305197 40.83264113 18.72305197 38 21 C31.93617021 20.46808511 31.93617021 20.46808511 29 19 C26.85676694 18.87728492 24.70920998 18.82446605 22.5625 18.8125 C21.40878906 18.79832031 20.25507812 18.78414062 19.06640625 18.76953125 C15.82719832 18.76074912 15.82719832 18.76074912 13 21 C9.16896958 20.68074747 7.23319447 20.15546298 4 18 C3.29875 18.515625 2.5975 19.03125 1.875 19.5625 C-1 21 -1 21 -4.0625 21 C-7.68389133 19.76718593 -8.90873207 18.13690189 -11 15 C-10.01 13.68 -9.02 12.36 -8 11 C-8.66 10.01 -9.32 9.02 -10 8 C-10.375 5.5 -10.375 5.5 -10 3 C-7.01145346 -0.33337883 -4.31526669 -0.37524058 0 0 Z M-4 6 C-2.02 6.99 -2.02 6.99 0 8 C0 7.34 0 6.68 0 6 C-1.32 6 -2.64 6 -4 6 Z M28 6 C29 8 29 8 29 8 Z M34 6 C35.98 6.99 35.98 6.99 38 8 C37.67 7.34 37.34 6.68 37 6 C36.01 6 35.02 6 34 6 Z M39 8 C39.83333333 10.16666667 39.83333333 10.16666667 42 11 C42 10.01 42 9.02 42 8 C41.01 8 40.02 8 39 8 Z M29 9 C29 9.99 29 10.98 29 12 C29.66 11.67 30.32 11.34 31 11 C30.34 10.34 29.68 9.68 29 9 Z M4 10 C5 12 5 12 5 12 Z M83 10 C82.67 11.32 82.34 12.64 82 14 C83.485 14.99 83.485 14.99 85 16 C86.01111093 12.95086772 86.01111093 12.95086772 85 10 C84.34 10 83.68 10 83 10 Z M-6 13 C-5.34 13.66 -4.68 14.32 -4 15 C-3.01 14.67 -2.02 14.34 -1 14 C-2.65 13.67 -4.3 13.34 -6 13 Z M33 13 C33.99 13.99 34.98 14.98 36 16 C36 15.01 36 14.02 36 13 C35.01 13 34.02 13 33 13 Z M28 14 C29 16 29 16 29 16 Z " fill="#1360B2" transform="translate(100,30)"/>
<path d="M0 0 C3.34252724 -0.07427838 5.8035914 -0.06546953 9 1 C10.66955115 0.6814284 12.33570503 0.34497991 14 0 C16.53913369 -0.14076221 19.08214564 -0.21990705 21.625 -0.25 C22.93726563 -0.27578125 24.24953125 -0.3015625 25.6015625 -0.328125 C29 0 29 0 30.90625 1.3046875 C32.74077982 4.14820872 32.88489313 6.66190081 33 10 C31.9375 12.875 31.9375 12.875 30 15 C26.8125 15.8125 26.8125 15.8125 24 16 C23.67 17.32 23.34 18.64 23 20 C20.5625 19.625 20.5625 19.625 18 19 C16.71553081 16.43106162 16.67022856 14.23423663 16.4375 11.375 C16.31181641 9.87066406 16.31181641 9.87066406 16.18359375 8.3359375 C16.12300781 7.56507812 16.06242187 6.79421875 16 6 C15.67 8.64 15.34 11.28 15 14 C14.67 14 14.34 14 14 14 C14 11.03 14 8.06 14 5 C14.99 4.67 15.98 4.34 17 4 C17 3.34 17 2.68 17 2 C16.01 2.33 15.02 2.66 14 3 C13.01 2.67 12.02 2.34 11 2 C11 2.99 11 3.98 11 5 C10.34 5 9.68 5 9 5 C9 4.34 9 3.68 9 3 C7.741875 2.79375 6.48375 2.5875 5.1875 2.375 C4.12595703 2.20097656 4.12595703 2.20097656 3.04296875 2.0234375 C0.68244176 1.80422152 0.68244176 1.80422152 -2 4 C-1.34 2.68 -0.68 1.36 0 0 Z M24 5 C23.67 6.32 23.34 7.64 23 9 C24.485 9.99 24.485 9.99 26 11 C27.01111093 7.95086772 27.01111093 7.95086772 26 5 C25.34 5 24.68 5 24 5 Z " fill="#1762B1" transform="translate(159,35)"/>
<path d="M0 0 C0.66 0.33 1.32 0.66 2 1 C2 1.66 2 2.32 2 3 C2.99 3.33 3.98 3.66 5 4 C5 4.99 5 5.98 5 7 C4.34 7.66 3.68 8.32 3 9 C3 9.99 3 10.98 3 12 C0.36 10.68 -2.28 9.36 -5 8 C-5 6.68 -5 5.36 -5 4 C-4.34 3.67 -3.68 3.34 -3 3 C-4.32 3 -5.64 3 -7 3 C-7 4.98 -7 6.96 -7 9 C-3.535 10.485 -3.535 10.485 0 12 C-0.33 13.65 -0.66 15.3 -1 17 C-1.99 17 -2.98 17 -4 17 C-4 17.66 -4 18.32 -4 19 C-0.535 18.505 -0.535 18.505 3 18 C2.67 18.66 2.34 19.32 2 20 C-1.25 20.875 -1.25 20.875 -5 21 C-8.42741629 18.91374661 -9.72481037 17.8255689 -11 14 C-10.01 13.01 -9.02 12.02 -8 11 C-8.66 10.01 -9.32 9.02 -10 8 C-10.375 5.5 -10.375 5.5 -10 3 C-7.01145346 -0.33337883 -4.31526669 -0.37524058 0 0 Z M-4 6 C-2.02 6.99 -2.02 6.99 0 8 C0 7.34 0 6.68 0 6 C-1.32 6 -2.64 6 -4 6 Z M-6 13 C-5.34 13.66 -4.68 14.32 -4 15 C-3.01 14.67 -2.02 14.34 -1 14 C-2.65 13.67 -4.3 13.34 -6 13 Z " fill="#0B5BAB" transform="translate(100,30)"/>
<path d="M0 0 C3.34252724 -0.07427838 5.8035914 -0.06546953 9 1 C10.66955115 0.6814284 12.33570503 0.34497991 14 0 C16.53913369 -0.14076221 19.08214564 -0.21990705 21.625 -0.25 C22.93726563 -0.27578125 24.24953125 -0.3015625 25.6015625 -0.328125 C29 0 29 0 30.9609375 1.515625 C31.30382812 2.00546875 31.64671875 2.4953125 32 3 C31.34 3.33 30.68 3.66 30 4 C30 3.34 30 2.68 30 2 C26.37 2 22.74 2 19 2 C19 7.28 19 12.56 19 18 C19.99 18 20.98 18 22 18 C22.33 16.68 22.66 15.36 23 14 C24.65 14 26.3 14 28 14 C27.67 14.66 27.34 15.32 27 16 C26.01 16 25.02 16 24 16 C23.67 17.32 23.34 18.64 23 20 C20.5625 19.625 20.5625 19.625 18 19 C16.71553081 16.43106162 16.67022856 14.23423663 16.4375 11.375 C16.31181641 9.87066406 16.31181641 9.87066406 16.18359375 8.3359375 C16.12300781 7.56507812 16.06242187 6.79421875 16 6 C15.67 8.64 15.34 11.28 15 14 C14.67 14 14.34 14 14 14 C14 11.03 14 8.06 14 5 C14.99 4.67 15.98 4.34 17 4 C17 3.34 17 2.68 17 2 C16.01 2.33 15.02 2.66 14 3 C13.01 2.67 12.02 2.34 11 2 C11 2.99 11 3.98 11 5 C10.34 5 9.68 5 9 5 C9 4.34 9 3.68 9 3 C7.741875 2.79375 6.48375 2.5875 5.1875 2.375 C4.12595703 2.20097656 4.12595703 2.20097656 3.04296875 2.0234375 C0.68244176 1.80422152 0.68244176 1.80422152 -2 4 C-1.34 2.68 -0.68 1.36 0 0 Z " fill="#0753AC" transform="translate(159,35)"/>
<path d="M0 0 C2.9375 0.6875 2.9375 0.6875 4.9375 1.6875 C4.9375 2.3475 4.9375 3.0075 4.9375 3.6875 C5.5975 3.6875 6.2575 3.6875 6.9375 3.6875 C6.9375 2.6975 6.9375 1.7075 6.9375 0.6875 C8.9175 0.6875 10.8975 0.6875 12.9375 0.6875 C12.9375 1.3475 12.9375 2.0075 12.9375 2.6875 C11.9475 3.1825 11.9475 3.1825 10.9375 3.6875 C10.47098793 5.81326782 10.47098793 5.81326782 10.3125 8.25 C10.23773438 9.07628906 10.16296875 9.90257812 10.0859375 10.75390625 C10.03695312 11.39199219 9.98796875 12.03007813 9.9375 12.6875 C7.2975 12.6875 4.6575 12.6875 1.9375 12.6875 C0.9375 9.6875 0.9375 9.6875 1.9375 6.6875 C0.2875 6.6875 -1.3625 6.6875 -3.0625 6.6875 C-2.423125 6.39875 -1.78375 6.11 -1.125 5.8125 C1.08956079 4.85926549 1.08956079 4.85926549 1.9375 2.6875 C1.195 2.8525 0.4525 3.0175 -0.3125 3.1875 C-3.0625 3.6875 -3.0625 3.6875 -7.0625 3.6875 C-5.34837626 0.25925252 -3.72078227 -0.37967166 0 0 Z " fill="#2772BB" transform="translate(163.0625,36.3125)"/>
<path d="M0 0 C0.66 1.32 1.32 2.64 2 4 C-0.31 3.67 -2.62 3.34 -5 3 C-5 3.99 -5 4.98 -5 6 C-2.69 6.33 -0.38 6.66 2 7 C3.32296047 13.37426409 3.32296047 13.37426409 2 15.9375 C-1.09868019 17.58367385 -3.56141649 17.36841966 -7 17 C-8.9375 15.625 -8.9375 15.625 -10 14 C-10 13.34 -10 12.68 -10 12 C-7.03 12.33 -4.06 12.66 -1 13 C-1 12.34 -1 11.68 -1 11 C-2.11375 10.54625 -3.2275 10.0925 -4.375 9.625 C-8 8 -8 8 -10 6 C-10 3 -10 3 -8.375 1.3125 C-5.41801336 -0.32162419 -3.32820054 -0.22692276 0 0 Z " fill="#2570B9" transform="translate(139,32)"/>
<path d="M0 0 C2.875 -0.125 2.875 -0.125 6 0 C8 2 8 2 8 5 C9.4540625 4.7525 9.4540625 4.7525 10.9375 4.5 C13.3056269 4.11336704 14.69990646 4 17 4 C17 7.33333333 17 10.66666667 17 14 C16.01 14 15.02 14 14 14 C14 14.66 14 15.32 14 16 C11.69 15.34 9.38 14.68 7 14 C6.93941406 13.30132812 6.87882813 12.60265625 6.81640625 11.8828125 C6.73261719 10.97273438 6.64882812 10.06265625 6.5625 9.125 C6.48128906 8.22007813 6.40007812 7.31515625 6.31640625 6.3828125 C6.13010715 3.98889139 6.13010715 3.98889139 5 2 C3.02 2 1.04 2 -1 2 C-0.67 1.34 -0.34 0.68 0 0 Z " fill="#1D6CB4" transform="translate(148,35)"/>
<path d="M0 0 C14.19 0 28.38 0 43 0 C42.34 0.33 41.68 0.66 41 1 C40.70351562 1.61359375 40.40703125 2.2271875 40.1015625 2.859375 C38.84650922 5.29827286 37.49066005 6.52612885 35.375 8.25 C34.74335937 8.77078125 34.11171875 9.2915625 33.4609375 9.828125 C32.97882813 10.21484375 32.49671875 10.6015625 32 11 C27.25 9.125 27.25 9.125 25 8 C25 7.34 25 6.68 25 6 C26.010625 6.45375 27.02125 6.9075 28.0625 7.375 C29.361875 7.58125 30.66125 7.7875 32 8 C35.465 5.03 35.465 5.03 39 2 C27.78 2 16.56 2 5 2 C6.98 4.31 8.96 6.62 11 9 C7.83851578 7.41925789 5.83874491 6.18882303 3.25 3.9375 C2.63640625 3.41027344 2.0228125 2.88304687 1.390625 2.33984375 C0.93171875 1.89769531 0.4728125 1.45554687 0 1 C0 0.67 0 0.34 0 0 Z " fill="#043F9B" transform="translate(33,16)"/>
<path d="M0 0 C1.32 1.32 2.64 2.64 4 4 C3.34 4 2.68 4 2 4 C1.67 12.25 1.34 20.5 1 29 C1.66 28.67 2.32 28.34 3 28 C5.2072923 27.92907158 7.41667452 27.91584975 9.625 27.9375 C10.81351563 27.94652344 12.00203125 27.95554687 13.2265625 27.96484375 C14.14179687 27.97644531 15.05703125 27.98804687 16 28 C15.649375 27.236875 15.29875 26.47375 14.9375 25.6875 C14 23 14 23 15 20 C17.65555703 23.87268734 18 25.02006195 18 30 C12.06 30 6.12 30 0 30 C0 20.1 0 10.2 0 0 Z " fill="#0647BB" transform="translate(30,19)"/>
<path d="M0 0 C1.2065625 0.0309375 1.2065625 0.0309375 2.4375 0.0625 C2.1075 0.68125 1.7775 1.3 1.4375 1.9375 C0.29556765 3.97268344 0.29556765 3.97268344 0.4375 6.0625 C1.571875 6.454375 2.70625 6.84625 3.875 7.25 C7.4375 9.0625 7.4375 9.0625 8.5625 11.5625 C8.4375 14.0625 8.4375 14.0625 7.3125 15.875 C4.89936517 17.40331872 3.24112763 17.28982116 0.4375 17.0625 C0.4375 16.4025 0.4375 15.7425 0.4375 15.0625 C1.4275 14.7325 2.4175 14.4025 3.4375 14.0625 C4.17073796 12.04741642 4.17073796 12.04741642 4.4375 10.0625 C3.303125 9.753125 2.16875 9.44375 1 9.125 C-2.5625 8.0625 -2.5625 8.0625 -3.5625 7.0625 C-3.6875 4.0625 -3.6875 4.0625 -3.5625 1.0625 C-2.5625 0.0625 -2.5625 0.0625 0 0 Z " fill="#2670B9" transform="translate(95.5625,31.9375)"/>
<path d="M0 0 C0 5.94 0 11.88 0 18 C-0.99 17.67 -1.98 17.34 -3 17 C-3.125 10.375 -3.125 10.375 -2 7 C-2.99 7 -3.98 7 -5 7 C-5.33 7.66 -5.66 8.32 -6 9 C-8.475 8.01 -8.475 8.01 -11 7 C-10.67 5.68 -10.34 4.36 -10 3 C-7.61435923 3.57584432 -5.33317216 4.22227595 -3 5 C-3.66 3.68 -4.32 2.36 -5 1 C-2 0 -2 0 0 0 Z M-10 5 C-8.02 5.99 -8.02 5.99 -6 7 C-6.33 6.34 -6.66 5.68 -7 5 C-7.99 5 -8.98 5 -10 5 Z " fill="#0752AF" transform="translate(144,31)"/>
<path d="M0 0 C0.33 0.99 0.66 1.98 1 3 C1.66 2.01 2.32 1.02 3 0 C5.64 1.32 8.28 2.64 11 4 C10.67 4.99 10.34 5.98 10 7 C9.34 6.67 8.68 6.34 8 6 C7.67 6 7.34 6 7 6 C4.37886292 6 2.49064888 5.68707555 0 5 C0 5.66 0 6.32 0 7 C3.06246747 8.78409802 5.22079273 9.22880021 8.75 9.125 C9.94882813 9.09792969 9.94882813 9.09792969 11.171875 9.0703125 C12.07679688 9.03550781 12.07679688 9.03550781 13 9 C11.71484375 10.515625 11.71484375 10.515625 10 12 C6.22458167 11.72542412 2.64211624 11.01979255 -1 10 C-1.125 3.375 -1.125 3.375 0 0 Z " fill="#035AA0" transform="translate(128,39)"/>
<path d="M0 0 C2.31 0 4.62 0 7 0 C6.51917969 0.35707031 6.03835937 0.71414062 5.54296875 1.08203125 C3.31575162 3.85054672 3.48605989 6.18159023 3.3125 9.6875 C3.21388672 11.45673828 3.21388672 11.45673828 3.11328125 13.26171875 C3.05720703 14.61716797 3.05720703 14.61716797 3 16 C2.01 16 1.02 16 0 16 C0 10.72 0 5.44 0 0 Z " fill="#2771BA" transform="translate(178,37)"/>
<path d="M0 0 C2.875 -0.125 2.875 -0.125 6 0 C8 2 8 2 8 5 C9.4540625 4.7525 9.4540625 4.7525 10.9375 4.5 C13.3056269 4.11336704 14.69990646 4 17 4 C16.67 4.99 16.34 5.98 16 7 C14.35 7 12.7 7 11 7 C10.25042843 10.47147842 10.25042843 10.47147842 10 14 C9.01 14 8.02 14 7 14 C6.93941406 13.30132812 6.87882813 12.60265625 6.81640625 11.8828125 C6.73261719 10.97273438 6.64882812 10.06265625 6.5625 9.125 C6.48128906 8.22007813 6.40007812 7.31515625 6.31640625 6.3828125 C6.13010715 3.98889139 6.13010715 3.98889139 5 2 C3.02 2 1.04 2 -1 2 C-0.67 1.34 -0.34 0.68 0 0 Z " fill="#0956AB" transform="translate(148,35)"/>
<path d="M0 0 C0.99 0 1.98 0 3 0 C3 5.61 3 11.22 3 17 C2.01 17 1.02 17 0 17 C0 11.39 0 5.78 0 0 Z " fill="#2670B9" transform="translate(119,32)"/>
<path d="M0 0 C2.4375 0.375 2.4375 0.375 5 1 C6.26237731 3.52475462 6.09856404 5.31200466 6.0625 8.125 C6.05347656 9.03507812 6.04445312 9.94515625 6.03515625 10.8828125 C6.02355469 11.58148438 6.01195312 12.28015625 6 13 C5.01 13 4.02 13 3 13 C2.92652344 12.06027344 2.92652344 12.06027344 2.8515625 11.1015625 C2.77679688 10.28429688 2.70203125 9.46703125 2.625 8.625 C2.55539063 7.81289063 2.48578125 7.00078125 2.4140625 6.1640625 C2.17107412 3.79665809 2.17107412 3.79665809 0 2 C0 1.34 0 0.68 0 0 Z " fill="#2670B9" transform="translate(149,36)"/>
<path d="M0 0 C0.33 0.66 0.66 1.32 1 2 C5.455 1.505 5.455 1.505 10 1 C10 1.66 10 2.32 10 3 C7.03 3 4.06 3 1 3 C2.72226496 6.24849977 2.72226496 6.24849977 6 7 C6 7.66 6 8.32 6 9 C3.625 9.1875 3.625 9.1875 1 9 C-1.14809171 5.77786243 -1.29386153 4.72224599 -1 1 C-0.67 0.67 -0.34 0.34 0 0 Z " fill="#2872BA" transform="translate(107,40)"/>
<path d="M0 0 C2.92879371 0.62759865 5.36095629 1.58622659 8 3 C7.01 3 6.02 3 5 3 C5 3.66 5 4.32 5 5 C8.465 4.505 8.465 4.505 12 4 C11.67 4.66 11.34 5.32 11 6 C7.625 6.8125 7.625 6.8125 4 7 C1.63933104 5.50490966 1.14469658 4.46039822 0.3125 1.8125 C0.209375 1.214375 0.10625 0.61625 0 0 Z " fill="#1362AC" transform="translate(91,44)"/>
<path d="M0 0 C2.31 0.33 4.62 0.66 7 1 C7.33 2.32 7.66 3.64 8 5 C5.04335481 6.4783226 2.25770263 6.06032783 -1 6 C-0.67 5.01 -0.34 4.02 0 3 C0.66 2.67 1.32 2.34 2 2 C1.34 1.34 0.68 0.68 0 0 Z " fill="#1666B6" transform="translate(109,36)"/>
<path d="M0 0 C5.75 3.75 5.75 3.75 8 6 C8.1953125 8.1640625 8.1953125 8.1640625 8.125 10.625 C8.10695313 11.44226562 8.08890625 12.25953125 8.0703125 13.1015625 C8.03550781 14.04128906 8.03550781 14.04128906 8 15 C7.34 15 6.68 15 6 15 C6 12.03 6 9.06 6 6 C4.68 5.34 3.36 4.68 2 4 C0.75 1.875 0.75 1.875 0 0 Z " fill="#0955B2" transform="translate(36,24)"/>
<path d="M0 0 C0 3 0 3 -1.75 4.82421875 C-2.4925 5.43910156 -3.235 6.05398437 -4 6.6875 C-4.7425 7.31011719 -5.485 7.93273437 -6.25 8.57421875 C-6.8275 9.04472656 -7.405 9.51523437 -8 10 C-12.75 8.125 -12.75 8.125 -15 7 C-15 6.34 -15 5.68 -15 5 C-13.515 5.7115625 -13.515 5.7115625 -12 6.4375 C-10.08944151 7.12416808 -10.08944151 7.12416808 -8 7 C-4.93031801 5.05141926 -2.48204359 2.64321525 0 0 Z " fill="#0751B0" transform="translate(73,17)"/>
<path d="M0 0 C4.455 1.98 4.455 1.98 9 4 C8.67 4.99 8.34 5.98 8 7 C7.34 6.67 6.68 6.34 6 6 C5.67 6 5.34 6 5 6 C4.01 6 3.02 6 2 6 C1.34 5.34 0.68 4.68 0 4 C0 2.68 0 1.36 0 0 Z " fill="#0855AC" transform="translate(130,39)"/>
<path d="M0 0 C-0.3125 1.875 -0.3125 1.875 -1 4 C-4 6 -4 6 -6.1875 5.625 C-6.785625 5.41875 -7.38375 5.2125 -8 5 C-6.68 4.67 -5.36 4.34 -4 4 C-4 3.34 -4 2.68 -4 2 C-4.99 1.67 -5.98 1.34 -7 1 C-4.50935112 0.31292445 -2.62113708 0 0 0 Z " fill="#1364A9" transform="translate(117,45)"/>
<path d="M0 0 C3 3 3 3 3.29296875 5.04296875 C3.1953125 7.02864583 3.09765625 9.01432292 3 11 C2.01 11 1.02 11 0 11 C0 7.37 0 3.74 0 0 Z " fill="#1261B9" transform="translate(167,38)"/>
<path d="M0 0 C2.31 0 4.62 0 7 0 C7.33 0.66 7.66 1.32 8 2 C6.906875 2.12375 5.81375 2.2475 4.6875 2.375 C0.92618198 2.75464801 0.92618198 2.75464801 -2 5 C-2.66 4.67 -3.32 4.34 -4 4 C-3.67 3.01 -3.34 2.02 -3 1 C-3 1.66 -3 2.32 -3 3 C-2.34 3 -1.68 3 -1 3 C-0.67 2.01 -0.34 1.02 0 0 Z " fill="#0B6FA0" transform="translate(132,30)"/>
<path d="M0 0 C1.32 0 2.64 0 4 0 C4 0.99 4 1.98 4 3 C2.35 3.33 0.7 3.66 -1 4 C-0.67 2.68 -0.34 1.36 0 0 Z " fill="#0953B2" transform="translate(161,43)"/>
<path d="" fill="#008080" transform="translate(0,0)"/>
</svg>
